<svg xmlns="http://www.w3.org/2000/svg" viewBox="0 0 931.74 227.49"><defs><style>.cls-1{fill:#05444f;stroke:#ffd00d;stroke-miterlimit:10;stroke-width:7px;}</style></defs><title>iconz</title><g id="Calque_2" data-name="Calque 2"><g id="Calque_1-2" data-name="Calque 1"><path class="cls-1" d="M102.17,7.55l28.71,193.07H79.57l-2.69-34.7h-18l-3,34.7H4L29.6,7.55ZM75.56,131.69q-3.81-32.8-7.65-81.09-7.67,55.45-9.64,81.09Z"/><path class="cls-1" d="M254.24,200.62V224H216.32q-13.71,0-19.32-2.12t-7.57-6.28q-2-4.16-2-15-17.05-.47-29.34-8.94t-16.22-21.52Q138,157.09,138,131.1V71.35q0-19.68,2.33-30a47.91,47.91,0,0,1,9.6-19.44A45.2,45.2,0,0,1,168.62,8.15,66.9,66.9,0,0,1,194,3.5q16.81,0,30,5.72t19.68,14.54a46.82,46.82,0,0,1,8.47,18.3q2,9.48,2,28.19V133q0,25.75-2.5,34.93a26.62,26.62,0,0,1-9.6,14.6q-7.1,5.42-18.9,8.29.36,6.48,2.68,8.16t11,1.68ZM203.92,57.16q0-13.47-1.49-17.23t-6.14-3.76a6.85,6.85,0,0,0-6,3q-2.09,3-2.09,17.95v90.15q0,16.81,1.37,20.75t6.38,3.94q5.13,0,6.56-4.53t1.43-21.58Z"/><path class="cls-1" d="M387,7.55v129q0,21.94-1.43,30.83t-8.47,18.25a43.94,43.94,0,0,1-18.54,14.19q-11.51,4.83-27.13,4.83-17.29,0-30.53-5.72T281.07,184a41.26,41.26,0,0,1-7.75-19.38q-1.19-10.2-1.19-42.87V7.55h50.2V152.32q0,12.64,1.37,16.16t5.54,3.52q4.77,0,6.14-3.88t1.37-18.31V7.55Z"/><path class="cls-1" d="M493.19,7.55,521.9,200.62H470.59l-2.69-34.7h-18l-3,34.7H395L420.63,7.55ZM466.58,131.69q-3.81-32.8-7.65-81.09-7.67,55.45-9.64,81.09Z"/><path class="cls-1" d="M660.26,7.55,689,200.62H637.66L635,165.92H617l-3,34.7h-51.9L587.7,7.55ZM633.65,131.69Q629.84,98.89,626,50.6q-7.67,55.45-9.63,81.09Z"/><path class="cls-1" d="M697.5,7.55h50.56q20.51,0,31.54,3.22t16.58,9.3a31.94,31.94,0,0,1,7.51,14.73q2,8.65,2,26.77V78.39q0,18.49-3.82,27t-14,13q-10.2,4.53-26.65,4.53H747.7v77.75H697.5Zm50.21,33V89.72q2.15.12,3.7.12,6.92,0,9.6-3.4t2.68-14.13V56.45q0-9.9-3.1-12.88T747.7,40.59Z"/><path class="cls-1" d="M820.08,7.55h50.56q20.51,0,31.54,3.22t16.58,9.3a31.94,31.94,0,0,1,7.51,14.73q2,8.65,2,26.77V78.39q0,18.49-3.82,27t-14,13q-10.2,4.53-26.65,4.53H870.29v77.75H820.08Zm50.21,33V89.72q2.15.12,3.7.12,6.92,0,9.6-3.4t2.68-14.13V56.45q0-9.9-3.1-12.88T870.29,40.59Z"/></g></g></svg>